<svg width="36" height="36" viewBox="0 0 36 36" fill="none" xmlns="http://www.w3.org/2000/svg">
<rect width="36" height="36" rx="18" fill="url(#paint0_linear_66_2600)"/>
<path d="M12.7201 15.6901H13.8751M13.8751 15.6901C14.1814 15.6901 14.4752 15.8118 14.6918 16.0284C14.9084 16.245 15.0301 16.5388 15.0301 16.8451C15.0301 17.1515 14.9084 17.4452 14.6918 17.6618C14.4752 17.8784 14.1814 18.0001 13.8751 18.0001H12.0601M13.8751 15.6901C14.1814 15.6901 14.4752 15.5684 14.6918 15.3518C14.9084 15.1352 15.0301 14.8415 15.0301 14.5351C15.0301 14.2288 14.9084 13.935 14.6918 13.7184C14.4752 13.5018 14.1814 13.3801 13.8751 13.3801H12.0601" stroke="white" stroke-width="1.008" stroke-linecap="round" stroke-linejoin="round"/>
<path d="M24.3361 20.3762C24.3361 22.0131 22.0085 23.3598 19.0229 23.5268M12.4561 20.3762C12.4561 21.9828 14.6982 23.3098 17.6041 23.5163L15.2281 25.1282M17.6041 23.5442L16.0201 21.3266" stroke="white" stroke-width="1.008" stroke-linecap="round" stroke-linejoin="round"/>
<path d="M19.3199 13.3801H18.6599C18.1348 13.3801 17.6312 13.5887 17.2599 13.9601C16.8885 14.3314 16.6799 14.835 16.6799 15.3601V16.6801M16.6799 16.6801C16.6799 17.0302 16.819 17.366 17.0666 17.6135C17.3141 17.8611 17.6498 18.0001 17.9999 18.0001H18.3299C18.68 18.0001 19.0158 17.8611 19.2633 17.6135C19.5109 17.366 19.6499 17.0302 19.6499 16.6801V16.3501C19.6499 16 19.5109 15.6643 19.2633 15.4167C19.0158 15.1692 18.68 15.0301 18.3299 15.0301H17.9999C17.6498 15.0301 17.3141 15.1692 17.0666 15.4167C16.819 15.6643 16.6799 16 16.6799 16.3501V16.6801Z" stroke="white" stroke-width="1.008" stroke-linecap="round" stroke-linejoin="round"/>
<path d="M21.3 15.6901V14.7001C21.3 14.35 21.4391 14.0143 21.6867 13.7667C21.9342 13.5192 22.27 13.3801 22.62 13.3801H22.95C23.3001 13.3801 23.6359 13.5192 23.8834 13.7667C24.131 14.0143 24.27 14.35 24.27 14.7001V16.6801C24.27 17.0302 24.131 17.366 23.8834 17.6135C23.6359 17.8611 23.3001 18.0001 22.95 18.0001H22.62C22.27 18.0001 21.9342 17.8611 21.6867 17.6135C21.4391 17.366 21.3 17.0302 21.3 16.6801V15.6901Z" stroke="white" stroke-width="1.008" stroke-linecap="round" stroke-linejoin="round"/>
<ellipse cx="23.9399" cy="11.2681" rx="0.395999" ry="0.396" fill="white" stroke="white" stroke-width="1.008"/>
<defs>
<linearGradient id="paint0_linear_66_2600" x1="16.6731" y1="-4.22512e-07" x2="16.6731" y2="36" gradientUnits="userSpaceOnUse">
<stop stop-color="#FF4995"/>
<stop offset="1" stop-color="#D6034F"/>
</linearGradient>
</defs>
</svg>
