<svg width="21" height="25" viewBox="0 0 21 25" fill="none" xmlns="http://www.w3.org/2000/svg">
<path d="M19.7973 8.59466C18.1588 9.6072 17.1467 11.343 17.1467 13.2716C17.1467 15.4413 18.4479 17.4182 20.4238 18.2379C20.0383 19.4915 19.46 20.6487 18.7371 21.7094C17.6768 23.2041 16.5684 24.747 14.9299 24.747C13.2913 24.747 12.8094 23.7827 10.8817 23.7827C9.00214 23.7827 8.32744 24.7952 6.78527 24.7952C5.24311 24.7952 4.18286 23.397 2.97805 21.6612C1.38768 19.2504 0.472021 16.4539 0.423828 13.5127C0.423828 8.73931 3.50817 6.18386 6.5925 6.18386C8.23106 6.18386 9.58045 7.24462 10.5925 7.24462C11.5564 7.24462 13.0985 6.13565 14.9299 6.13565C16.8576 6.08743 18.6889 7.00354 19.7973 8.59466ZM14.0624 4.11057C14.8817 3.14625 15.3154 1.94085 15.3636 0.687238C15.3636 0.54259 15.3636 0.349726 15.3154 0.205078C13.9178 0.349726 12.6166 1.02475 11.7009 2.0855C10.8817 3.00161 10.3997 4.15879 10.3515 5.41241C10.3515 5.55706 10.3515 5.7017 10.3997 5.84635C10.4961 5.84635 10.6407 5.89457 10.7371 5.89457C12.0383 5.79814 13.2431 5.12311 14.0624 4.11057Z" fill="#272727"/>
</svg>
