<svg width="20" height="20" viewBox="0 0 20 20" fill="none" xmlns="http://www.w3.org/2000/svg">
<path d="M10 1.66675C5.55837 5.45841 3.33337 8.73341 3.33337 11.5001C3.33337 15.6501 6.50004 18.3334 10 18.3334C13.5 18.3334 16.6667 15.6501 16.6667 11.5001C16.6667 8.73341 14.4417 5.45841 10 1.66675ZM6.52504 11.6667C6.83337 11.6667 7.08337 11.8834 7.14171 12.1834C7.48337 14.0334 9.04171 14.6667 10.175 14.5751C10.5334 14.5584 10.8334 14.8417 10.8334 15.2001C10.8334 15.5334 10.5667 15.8084 10.2334 15.8251C8.45837 15.9334 6.38337 14.9167 5.90837 12.3917C5.89389 12.3024 5.89899 12.211 5.92331 12.1238C5.94763 12.0366 5.9906 11.9558 6.04924 11.8868C6.10789 11.8179 6.18081 11.7625 6.26296 11.7245C6.34511 11.6865 6.43453 11.6668 6.52504 11.6667Z" fill="url(#paint0_linear_66_2665)"/>
<defs>
<linearGradient id="paint0_linear_66_2665" x1="9.50859" y1="1.66675" x2="9.50859" y2="18.3334" gradientUnits="userSpaceOnUse">
<stop stop-color="#FF4995"/>
<stop offset="1" stop-color="#D6034F"/>
</linearGradient>
</defs>
</svg>
