<svg width="12" height="13" viewBox="0 0 12 13" fill="none" xmlns="http://www.w3.org/2000/svg">
<path d="M10 5.5C10 7.709 6 11.5 6 11.5C6 11.5 2 7.709 2 5.5C2 4.43913 2.42143 3.42172 3.17157 2.67157C3.92172 1.92143 4.93913 1.5 6 1.5C7.06087 1.5 8.07828 1.92143 8.82843 2.67157C9.57857 3.42172 10 4.43913 10 5.5Z" fill="url(#paint0_linear_66_2606)"/>
<path d="M6.00002 5.89995C6.15915 5.89995 6.31177 5.83674 6.42429 5.72422C6.53681 5.61169 6.60002 5.45908 6.60002 5.29995C6.60002 5.14082 6.53681 4.98821 6.42429 4.87569C6.31177 4.76317 6.15915 4.69995 6.00002 4.69995C5.84089 4.69995 5.68828 4.76317 5.57576 4.87569C5.46324 4.98821 5.40002 5.14082 5.40002 5.29995C5.40002 5.45908 5.46324 5.61169 5.57576 5.72422C5.68828 5.83674 5.84089 5.89995 6.00002 5.89995Z" fill="white" stroke="white" stroke-width="1.25" stroke-linecap="round" stroke-linejoin="round"/>
<defs>
<linearGradient id="paint0_linear_66_2606" x1="5.70513" y1="1.5" x2="5.70513" y2="11.5" gradientUnits="userSpaceOnUse">
<stop stop-color="#FF4995"/>
<stop offset="1" stop-color="#D6034F"/>
</linearGradient>
</defs>
</svg>
