<svg width="89" height="90" viewBox="0 0 89 90" fill="none" xmlns="http://www.w3.org/2000/svg">
<rect width="89" height="89" transform="translate(0 0.302841)" fill="white"/>
<path d="M34.085 31.4499L9.79236 41.8605V80.8416L34.085 71.2397V31.4499Z" fill="url(#paint0_linear_33_686)"/>
<path d="M9.79236 47.2362V52.236L34.085 41.8254V36.8256L9.79236 47.2362ZM9.79236 62.1431L34.085 51.7325V46.7328L9.79236 57.1434V62.1431ZM9.79236 72.0503L34.085 61.6397V56.6399L9.79236 67.0505V72.0503ZM9.79236 81.9575L34.085 71.5473V66.5476L9.79236 76.9581V81.9575Z" fill="url(#paint1_linear_33_686)"/>
<path d="M28.1245 13.6969L70.9946 39.2721V62.7754L28.1245 72.0216V13.6969Z" fill="url(#paint2_linear_33_686)"/>
<path d="M34.7654 33.689V26.882H41.572V33.689H34.7654Z" fill="white"/>
<path d="M34.7653 45.6284V38.8218H41.5719V45.6284H34.7653Z" fill="white"/>
<path d="M34.7653 57.5683V50.7617H41.5719V57.5683H34.7653Z" fill="white"/>
<path d="M26.3778 7.42284V13.7671L72.7414 41.4268V35.083L26.3778 7.42284Z" fill="url(#paint3_linear_33_686)"/>
<path d="M78.8584 41.7164L54.5663 52.127V68.1609L78.8584 81.5062V41.7164Z" fill="url(#paint4_linear_33_686)"/>
<path d="M64.763 78.4343H68.6617V50.1054L64.763 51.776V78.4343ZM57.4825 78.4343H61.3812V53.2253L57.4825 54.8959V78.4343ZM72.0435 48.6555V78.4338H75.9422V46.985L72.0435 48.6555Z" fill="white"/>
<path d="M18.2023 82.1828H71.2686L44.7354 66.3217L18.2023 82.1828Z" fill="url(#paint5_linear_33_686)"/>
<path d="M44.7354 59.1654C44.7354 59.1654 44.7354 64.0345 44.7354 66.3217C56.0383 73.0784 71.2685 82.1828 71.2685 82.1828H83.2407L44.7354 59.1654Z" fill="url(#paint6_linear_33_686)"/>
<path d="M6.22998 82.1828H18.2022C18.2022 82.1828 33.4329 73.0784 44.7353 66.3217C44.7353 64.0345 44.7353 59.1654 44.7353 59.1654L6.22998 82.1828Z" fill="url(#paint7_linear_33_686)"/>
<path d="M44.7354 66.3217L18.2023 82.1828H21.6086C26.7441 79.1128 36.7233 73.1472 44.7354 68.3581C52.7475 73.1477 62.7272 79.1132 67.8623 82.1828H71.2686L44.7354 66.3217Z" fill="#E4E5E6"/>
<defs>
<linearGradient id="paint0_linear_33_686" x1="21.9387" y1="31.4499" x2="21.9387" y2="80.8416" gradientUnits="userSpaceOnUse">
<stop stop-color="#474747"/>
<stop offset="1"/>
</linearGradient>
<linearGradient id="paint1_linear_33_686" x1="21.9387" y1="81.9575" x2="21.9387" y2="36.8256" gradientUnits="userSpaceOnUse">
<stop stop-color="#0075FF"/>
<stop offset="1" stop-color="#4C9FFF"/>
</linearGradient>
<linearGradient id="paint2_linear_33_686" x1="49.5595" y1="13.6969" x2="49.5595" y2="72.0216" gradientUnits="userSpaceOnUse">
<stop stop-color="#474747"/>
<stop offset="1"/>
</linearGradient>
<linearGradient id="paint3_linear_33_686" x1="49.5596" y1="41.4268" x2="49.5596" y2="7.42284" gradientUnits="userSpaceOnUse">
<stop stop-color="#0075FF"/>
<stop offset="1" stop-color="#4C9FFF"/>
</linearGradient>
<linearGradient id="paint4_linear_33_686" x1="66.7124" y1="81.5062" x2="66.7124" y2="41.7164" gradientUnits="userSpaceOnUse">
<stop stop-color="#0075FF"/>
<stop offset="1" stop-color="#4C9FFF"/>
</linearGradient>
<linearGradient id="paint5_linear_33_686" x1="44.7354" y1="66.3217" x2="44.7354" y2="82.1828" gradientUnits="userSpaceOnUse">
<stop stop-color="#474747"/>
<stop offset="1"/>
</linearGradient>
<linearGradient id="paint6_linear_33_686" x1="63.988" y1="82.1828" x2="63.988" y2="59.1654" gradientUnits="userSpaceOnUse">
<stop stop-color="#0075FF"/>
<stop offset="1" stop-color="#4C9FFF"/>
</linearGradient>
<linearGradient id="paint7_linear_33_686" x1="25.4827" y1="82.1828" x2="25.4827" y2="59.1654" gradientUnits="userSpaceOnUse">
<stop stop-color="#0075FF"/>
<stop offset="1" stop-color="#4C9FFF"/>
</linearGradient>
</defs>
</svg>
